<?xml version="1.0" encoding="UTF-8"?>
<svg width="100px" height="45px" viewBox="0 0 100 45" version="1.1" xmlns="http://www.w3.org/2000/svg" xmlns:xlink="http://www.w3.org/1999/xlink">
    <!-- Generator: Sketch 54.1 (76490) - https://sketchapp.com -->
    <title>als logo</title>
    <desc>Created with Sketch.</desc>
    <g id="Page-2" stroke="none" stroke-width="1" fill="none" fill-rule="evenodd">
        <g id="funpay-desktop-3" transform="translate(-959.000000, -1083.000000)" fill-rule="nonzero">
            <g id="als-logo" transform="translate(737.000000, 1080.000000)">
                <g transform="translate(222.000000, 3.000000)" id="Shape">
                    <path d="M99,1 L99,33 L1,33 L1,1 L99,1 L99,1 Z M100,0 L0,0 L0,34 L100,34 L100,0 Z" fill="#4384D0"></path>
                    <path d="M80.649,22.75 L80.048,27.011 L79.799,27.011 L79.462,22.875 L78.811,4 L77,4 L78.499,30 L81.118,30 L83.6,4 L81.528,4 L80.649,22.75 Z M67.569,4 L64,4 L64,30 L67.439,30 C69.415,30 70,28.84 70,27 L70,6.766 C70,4.924 69.545,4 67.569,4 Z M68,27.462 C68,28.785 68.06,29 67,29 L66,29 L66,5 L67,5 C68.06,5 68,5.216 68,6.537 L68,27.462 Z M72,30 L76,30 L76,29 L74,29 L74,16 L75.341,16 L75.341,15 L74,15 L74,5 L76,5 L76,4 L72,4 L72,30 Z M18,4 L16,30 L17.525,30 L18.261,22 L20,22 L20.226,30 L22.302,30 L20.85,4 L18,4 Z M18.333,21 L18.932,9.255 L19.23,6.099 L19.8,6.099 L20,9.255 L20,21 L18.333,21 L18.333,21 Z M43,4 L41,4 L41,30 L45,30 L45,29 L43,29 L43,4 Z M46,30 L50,30 L50,29 L48,29 L48,16 L49.326,16 L49.326,15 L48,15 L48,5 L49.989,5 L49.989,4 L46,4 L46,30 Z M30.713,5 L32.379,5 L32.379,30 L34.24,30 L34.24,5 L35.841,5 L35.841,4 L30.713,4 L30.713,5 Z M36.617,27.939 C35.948,27.939 35.411,28.472 35.411,29.13 C35.411,29.793 35.948,30.323 36.617,30.323 C37.284,30.323 37.822,29.793 37.822,29.13 C37.822,28.473 37.285,27.939 36.617,27.939 Z M55.709,4 L51,4 L51,30 L54.94,30 C56.189,30 56.985,28.998 57,27.906 L57,17.631 C57,16.377 56.781,16.063 56.334,15.81 L56.334,15.246 C56.885,14.97 57,14.689 57,13.812 L57,5.582 C57,4.66 56.652,4 55.709,4 Z M55,28.104 C54.988,28.793 54.943,28.936 54.39,28.936 L52.987,28.936 L53,16 L54.406,16 C54.957,16 55,16.301 55,17.422 L55,28.104 Z M55,13.641 C55,14.732 55.028,14.944 54.449,15 L53,15 L52.986,5 L54.433,5 C54.899,5 55,5.216 55,5.792 L55,13.641 Z M27.594,4 L24,4 L24,30 L26,30 L26,18 L27.331,18 C27.941,18 28,18.282 28,19 L28,30 L30,30 L29.989,20.11 C29.989,18.685 30.062,18.315 29.265,17.851 L29.265,17.248 C29.794,17.191 30,17.123 30,15.715 L30,7 C30,5.158 29.554,4 27.594,4 Z M28,16 C28,16.805 28.019,17 27.364,17 L26,17 L26,5 L26.839,4.984 C27.883,5 28,5.677 28,7 L28,16 Z M59,30 L63,30 L63,29 L61,29 L61,16 L62.336,16 L62.336,15 L61,15 L61,5 L63,5 L63,4 L59,4 L59,30 Z" fill="#4384D0"></path>
                    <path d="M3.502,39.851 C3.502,39.113 2.944,38.771 2.404,38.771 C1.918,38.771 1.404,39.032 1.017,39.347 L0.612,38.852 C1.08,38.33 1.845,38.024 2.529,38.024 C3.51,38.024 4.438,38.591 4.438,39.851 C4.438,41.391 2.665,43.092 1.647,44.029 L4.528,44.029 L4.528,44.821 L0.54,44.821 L0.54,44.173 C1.53,43.146 3.502,41.417 3.502,39.851 L3.502,39.851 Z M8.479,44.974 C6.616,44.974 6.093,43.011 6.093,41.498 C6.093,39.986 6.615,38.023 8.479,38.023 C10.343,38.023 10.865,39.986 10.865,41.498 C10.865,43.011 10.343,44.974 8.479,44.974 Z M8.479,38.698 C7.21,38.698 6.976,40.535 6.976,41.498 C6.976,42.462 7.21,44.308 8.479,44.308 C9.749,44.308 9.983,42.462 9.983,41.498 C9.983,40.535 9.749,38.698 8.479,38.698 Z M12.271,39.329 L14.215,38.177 L14.782,38.177 L14.782,44.164 L15.979,44.38 L15.979,44.821 L12.693,44.821 L12.693,44.38 L13.89,44.164 L13.89,39.167 C13.899,39.158 12.432,39.708 12.432,39.708 L12.271,39.329 L12.271,39.329 Z M21.719,40.841 C21.719,42.839 21.035,44.978 19.252,44.978 C18.514,44.978 17.965,44.726 17.659,44.473 L17.92,44.01 C18.226,44.208 18.64,44.312 19.162,44.312 C20.179,44.312 20.656,43.952 20.755,42.566 C20.449,42.854 20.037,42.942 19.659,42.942 C18.334,42.942 17.623,41.988 17.593,40.483 C17.629,38.971 18.325,38.086 19.594,38.086 C21.143,38.122 21.719,39.184 21.719,40.841 L21.719,40.841 Z M20.828,41.783 C20.846,41.602 20.864,40.867 20.864,40.625 C20.864,39.778 20.666,38.734 19.568,38.734 C18.794,38.734 18.503,39.448 18.503,40.465 C18.503,41.5 18.563,42.276 19.55,42.276 C20.027,42.276 20.54,42.151 20.828,41.783 Z" fill="#000000"></path>
                </g>
            </g>
        </g>
    </g>
</svg>